<svg 
    xmlns="http://www.w3.org/2000/svg" 
    version="1.1" 
    xmlns:xlink="http://www.w3.org/1999/xlink" 
    xmlns:svgjs="http://svgjs.dev/svgjs" 
    width="1000" 
    height="750" 
    viewBox="0 0 1000 750">
    <rect 
        width="1000" 
        height="750" 
        fill="#282634">
    </rect>
    <g 
        transform="matrix(0.834,0,0,0.834,82.49454545454546,139.03804940089907)"
    >
    <svg 
        viewBox="0 0 396 247" 
        data-background-color="#282634" 
        preserveAspectRatio="xMidYMid meet" 
        height="623" 
        width="1000"
        xmlns="http://www.w3.org/2000/svg" 
        xmlns:xlink="http://www.w3.org/1999/xlink">
    
    <g 
        id="tight-bounds" 
        transform="matrix(1,0,0,1,0.2400000000000091,-0.09999999999999432)">
        <svg viewBox="0 0 395.52 247.2" height="247.2" width="395.52"><g><svg></svg></g><g><svg viewBox="0 0 395.52 247.2" height="247.2" width="395.52"><g transform="matrix(1,0,0,1,75.54432,61.906194410958896)"><svg viewBox="0 0 244.43135999999998 123.3876111780822" height="123.3876111780822" width="244.43135999999998"><g><svg viewBox="0 0 244.43135999999998 123.3876111780822" height="123.3876111780822" width="244.43135999999998"><g><svg viewBox="0 0 244.43135999999998 123.3876111780822" height="123.3876111780822" width="244.43135999999998"><g><svg viewBox="0 0 244.43135999999998 123.3876111780822" height="123.3876111780822" width="244.43135999999998"><g id="textblocktransform"><svg viewBox="0 0 244.43135999999998 123.3876111780822" height="123.3876111780822" width="244.43135999999998" id="textblock"><g><svg viewBox="0 0 244.43135999999998 123.3876111780822" height="123.3876111780822" width="244.43135999999998"><g transform="matrix(1,0,0,1,0,0)"><svg width="244.43135999999998" viewBox="3 -36.54999923706055 73 36.849998474121094" height="123.3876111780822" data-palette-color="#ff4057"><path d="M6.25 0L6.25 0Q5.05 0 4.03-0.53 3-1.05 3-2.05L3-2.05 3-34.55Q3-35.35 3.7-35.95 4.4-36.55 5.5-36.55L5.5-36.55 15.5-36.55Q18.7-36.55 21.28-35.45 23.85-34.35 25.35-31.88 26.85-29.4 26.85-25.3L26.85-25.3 26.85-25Q26.85-20.9 25.3-18.4 23.75-15.9 21.08-14.78 18.4-13.65 15.1-13.65L15.1-13.65 9.5-13.65 9.5-2.05Q9.5-1.05 8.5-0.53 7.5 0 6.25 0ZM9.5-30.85L9.5-18.75 15.1-18.75Q17.6-18.75 18.98-20.18 20.35-21.6 20.35-24.5L20.35-24.5 20.35-25.1Q20.35-28 18.98-29.43 17.6-30.85 15.1-30.85L15.1-30.85 9.5-30.85ZM49.6 0L33.7 0Q32.65 0 31.75-0.53 30.85-1.05 30.85-2.05L30.85-2.05 30.85-34.55Q30.85-35.6 31.87-36.08 32.9-36.55 34.1-36.55L34.1-36.55Q35.35-36.55 36.35-36.08 37.35-35.6 37.35-34.55L37.35-34.55 37.35-5.7 49.6-5.7Q50.55-5.7 51.02-4.83 51.5-3.95 51.5-2.85L51.5-2.85Q51.5-1.8 51.02-0.9 50.55 0 49.6 0L49.6 0ZM64.45 0.3L64.45 0.3Q61.05 0.3 58.32-0.9 55.6-2.1 54.05-4.35 52.5-6.6 52.5-9.65L52.5-9.65Q52.5-11.55 53.32-12.18 54.15-12.8 55.8-12.8L55.8-12.8Q57.05-12.8 58-12.38 58.95-11.95 59-10.75L59-10.75Q59.1-9.55 59.52-8.3 59.95-7.05 61.05-6.23 62.15-5.4 64.2-5.4L64.2-5.4Q66.75-5.4 68.12-6.83 69.5-8.25 69.5-11.15L69.5-11.15 69.5-30.85 64.34-30.85Q63.4-30.85 62.87-31.7 62.35-32.55 62.35-33.75L62.35-33.75Q62.35-34.75 62.82-35.65 63.3-36.55 64.34-36.55L64.34-36.55 73.09-36.55Q74.2-36.55 75.09-36.02 76-35.5 76-34.5L76-34.5 76-11.15Q76-7 74.42-4.48 72.84-1.95 70.25-0.83 67.65 0.3 64.45 0.3Z" opacity="1" transform="matrix(1,0,0,1,0,0)" fill="#ff4057" class="wordmark-text-0" data-fill-palette-color="primary" id="text-0"></path></svg></g></svg></g></svg></g></svg></g><g></g></svg></g></svg></g></svg></g><g><path d="M115.98 32.777A122.216 122.216 0 0 1 279.54 32.777L268.412 32.777A111.088 111.088 0 0 0 127.108 32.777L115.98 32.777M115.98 214.423A122.216 122.216 0 0 0 279.54 214.423L268.412 214.423A111.088 111.088 0 0 1 127.108 214.423L115.98 214.423" fill="#ff4057" stroke="transparent" data-fill-palette-color="tertiary"></path></g></svg></g><defs></defs></svg><rect width="395.52" height="247.2" fill="none" stroke="none" visibility="hidden"></rect></g></svg></g></svg>